<?xml version="1.0" encoding="utf-8"?>
<!-- Generator: Adobe Illustrator 27.8.1, SVG Export Plug-In . SVG Version: 6.00 Build 0)  -->
<svg version="1.1" id="Layer_1" xmlns="http://www.w3.org/2000/svg" xmlns:xlink="http://www.w3.org/1999/xlink" x="0px" y="0px"
	 viewBox="0 0 33 32" style="enable-background:new 0 0 33 32;" xml:space="preserve">
<style type="text/css">
	.st0{fill-rule:evenodd;clip-rule:evenodd;}
	.st1{fill:#FD312E;}
</style>
<path class="st0" d="M29.2,8H3.8v1.3h25.4C29.2,9.3,29.2,8,29.2,8z"/>
<path class="st0" d="M12,1.5c0-0.4-0.3-0.7-0.6-0.7s-0.6,0.3-0.6,0.7v1.7H12V1.5z M22.6,3.2h-1.2V1.5c0-0.4,0.3-0.7,0.6-0.7
	c0.3,0,0.6,0.3,0.6,0.7V3.2z"/>
<path class="st0" d="M29,4.5H4c-0.1,0-0.2,0.1-0.2,0.2v24.9c0,0.1,0.1,0.2,0.2,0.2h25c0.1,0,0.2-0.1,0.2-0.2V4.7
	C29.2,4.6,29.1,4.5,29,4.5z M4,3.2c-0.8,0-1.4,0.7-1.4,1.5v24.9c0,0.8,0.6,1.5,1.4,1.5h25c0.8,0,1.4-0.7,1.4-1.5V4.7
	c0-0.8-0.6-1.5-1.4-1.5C29,3.2,4,3.2,4,3.2z"/>
<path d="M22.5,20.5h-1v-0.2h-1.7v-0.7h1.7V19c-0.1,0-0.3,0-0.5,0.1c-0.2,0-0.4,0.1-0.6,0.1s-0.4,0.1-0.6,0.1s-0.4,0-0.5,0h-0.6v1.2
	h-1v-1.2h-2.1v-0.7H19c0.4,0,0.8,0,1.2-0.1c0.4-0.1,0.8-0.1,1.2-0.3v-2.5h1v4.8H22.5z M18.4,18.3c-0.7,0-1.2-0.1-1.6-0.3
	c-0.4-0.2-0.5-0.5-0.5-1c0-0.4,0.2-0.8,0.5-1c0.4-0.2,0.9-0.3,1.6-0.3s1.2,0.1,1.6,0.3c0.4,0.2,0.5,0.5,0.5,1c0,0.4-0.2,0.8-0.5,1
	S19.1,18.3,18.4,18.3z M18.4,17.6c0.4,0,0.7-0.1,0.9-0.2c0.2-0.1,0.3-0.3,0.3-0.4c0-0.2-0.1-0.3-0.3-0.4c-0.2-0.1-0.5-0.2-0.9-0.2
	s-0.7,0.1-0.9,0.2c-0.2,0.1-0.3,0.3-0.3,0.4c0,0.2,0.1,0.3,0.3,0.4C17.7,17.5,18,17.6,18.4,17.6z M22.5,22.6h-4.3V23v0.1
	c0,0,0,0,0.1,0h4.4v0.7h-4.9c-0.2,0-0.3,0-0.4-0.1s-0.1-0.2-0.1-0.4V22h4.3v-0.4h-4.3v-0.7h5.2C22.5,20.9,22.5,22.6,22.5,22.6z"/>
<path class="st1" d="M12.5,24.3V16l-2.6,1.7l-0.8-1.1l3.4-2.3H14v10H12.5z"/>
</svg>
